<svg xmlns="http://www.w3.org/2000/svg" width="64" height="64"><path style="line-height:normal;text-indent:0;text-align:start;text-decoration-line:none;text-decoration-style:solid;text-decoration-color:#000;text-transform:none;block-progression:tb;white-space:normal;isolation:auto;mix-blend-mode:normal;solid-color:#000;solid-opacity:1" d="m19.71-.69-.314.19H12.65l-.314-.188-.254.438-1.21 2.096.216.154H9.033a.5.5 0 0 0-.01 0l-2.365.047a.5.5 0 0 0-.18.037l-.16.062a.5.5 0 0 0-.088.047L.69 5.908a.5.5 0 0 0-.155.666l2.541 4.403a.5.5 0 0 0 .686.181l3.933-2.303c.504 3.196.542 6.888-.008 9.463h.002c-.645 2.93-1.856 6.058-3.119 10.452h.002l-.11.378a.5.5 0 0 0 .233.573l.342.193s1.01.57 2.846 1.094c1.834.524 4.555 1.039 8.15 1.039 3.595 0 6.314-.515 8.149-1.04 1.836-.524 2.845-1.093 2.845-1.093a.5.5 0 0 0 .002 0l.356-.203a.5.5 0 0 0 .224-.592l-.129-.389h.002c-1.579-4.764-2.72-7.867-3.255-10.683-.501-2.632-.447-5.131.2-8.629l3.856 1.764a.5.5 0 0 0 .64-.203l2.542-4.403a.5.5 0 0 0-.15-.662l-5.432-3.719a.5.5 0 0 0-.16-.068l-.25-.064a.5.5 0 0 0-.12-.016l-4.416-.033.237-.17L19.71-.69zM14.329.5h3.395l-1.696 1.014L14.328.5zm-1.635.19 2.676 1.595-.586 1.115-2.59-1.841.5-.87zm6.66 0 .5.869-2.572 1.834-.586-1.114L19.354.69zM9.038 3H12v3.957c0 .92.58 1.697 1.34 2.23a4.764 4.764 0 0 0 2.693.858c.967 0 1.92-.323 2.664-.86C19.441 8.65 20 7.87 20 6.958V3.004l5.287.04.106.026 4.974 3.405-2.082 3.607-3.681-1.684-.338-.189a.5.5 0 0 0-.733.338c-.696 3.435-.819 5.95-.486 8.453l-14.135.018c.351-2.762.242-6.138-.299-9.051a.5.5 0 0 0-.722-.352l-.405.21a.5.5 0 0 0-.021.01l-3.776 2.212-2.054-3.563 5.11-3.427.025-.01 2.267-.045V3zm6.996.17.467.887v1.267A.5.5 0 0 0 16.033 5a.5.5 0 0 0-.5.5.5.5 0 0 0 .5.5.5.5 0 0 0 .467-.326v1.65A.5.5 0 0 0 16.033 7a.5.5 0 0 0-.5.5.5.5 0 0 0 .5.5.5.5 0 0 0 .467-.326v1.332a3.316 3.316 0 0 1-.467.04c-.175 0-.354-.017-.533-.046V4.184l.533-1.014zM13 3.36l1.5 1.067v4.265a3.589 3.589 0 0 1-.584-.322C13.334 7.96 13 7.444 13 6.957V3.361zm6 .035V6.96c0 .495-.324 1.01-.889 1.416-.182.132-.392.24-.611.338V4.467l1.5-1.07zM23.205 18c.014.078.024.154.04.232.047.253.124.523.18.78L8.55 18.988c.035-.15.084-.307.117-.457.035-.164.061-.343.092-.513L23.205 18zM8.291 19.986l2.52.004-2.647 10.057-.006-.002c-1.747-.5-2.624-1.001-2.625-1.002 1.054-3.666 2.06-6.45 2.758-9.057zm3.553.006L15.5 20v11.025c-2.658-.04-4.774-.358-6.365-.738l2.709-10.295zM16.5 20l3.943.008 2.653 10.238c-1.623.4-3.81.746-6.596.783V20zm4.977.01 2.183.004c.632 2.462 1.608 5.214 2.873 9.029 0 0-.838.47-2.469.951l-2.587-9.984z" color="#000" enable-background="accumulate" font-family="sans-serif" font-weight="400" overflow="visible"/></svg>