<svg xmlns="http://www.w3.org/2000/svg" width="64" height="64"><path d="M13.4 1025.859c-.048-.001-.085.012-.127.02-.028 0-.053-.02-.082-.018a.501.501 0 0 0-.402.25l-1.223 2.124a.496.496 0 0 0 .118.628H9.316a.496.496 0 0 0-.384.187H8.93l-5.317 6.5a.5.5 0 0 0 .01.646l3.211 3.686a.5.5 0 0 0 .764-.012l.902-1.096v11.588a.5.5 0 0 0 .5.5h17a.5.5 0 0 0 .5-.5v-11.55l.908 1.064a.5.5 0 0 0 .758 0l3.211-3.688a.5.5 0 0 0 .01-.646l-5.317-6.498-.002.01a.5.5 0 0 0-.384-.19h-2.366a.497.497 0 0 0 .116-.627l-1.223-2.125a.5.5 0 0 0-.459-.25c-.019 0-.034.013-.053.016a.297.297 0 0 0-.1-.017H13.4zm1.625 1h4.946l-2.473 1.482-2.473-1.482zm-1.623.19 3.498 2.1-.85 1.624-3.392-2.432.744-1.291zm8.196 0 .744 1.292-3.393 2.432-.85-1.624 3.499-2.1zm.377 2.782v.03h3.47l4.9 5.987-2.552 2.934-1.314-1.531.021.175c.016-.669-.99-.689-1-.019v.03a.5.5 0 0 0 0 .048v12.377h-6v-18.257l2.475-1.774zm-12.418.031h3.507l2.436 1.744v18.256h-6v-12.469a.5.5 0 0 0-.885-.33l-1.414 1.713-2.547-2.924 4.903-5.99zm7.943.297.83 1.584a.485.485 0 0 0 .17.182v17.937h-2v-17.937a.484.484 0 0 0 .17-.18l.83-1.586zm0 2.156a.545.545 0 1 0 0 1.09.545.545 0 0 0 0-1.09zm3.5 2.543a.5.5 0 0 0-.5.5v3.43a.5.5 0 0 0 .334.47l1.635.573a.505.505 0 0 0 .33 0l1.633-.572a.5.5 0 0 0 .334-.471v-3.43a.5.5 0 0 0-.5-.5H21zm.5 1h2.266v2.574l-1.133.397-1.133-.397v-2.574zm-4 .815a.545.545 0 1 0 0 1.09.545.545 0 0 0 0-1.09zm0 4.359a.545.545 0 1 0 0 1.09.545.545 0 0 0 0-1.09zm0 4.357a.545.545 0 1 0 0 1.09.545.545 0 0 0 0-1.09z" color="#000" font-family="sans-serif" font-weight="400" overflow="visible" transform="translate(-1.5 -1022.862)" style="line-height:normal;text-indent:0;text-align:start;text-decoration-line:none;text-decoration-style:solid;text-decoration-color:#000;text-transform:none;block-progression:tb;white-space:normal;isolation:auto;mix-blend-mode:normal;solid-color:#000;solid-opacity:1"/></svg>